<svg width="29" height="33" viewBox="0 0 29 33" fill="none" xmlns="http://www.w3.org/2000/svg">
<path d="M2.74126 32.844C1.95976 32.844 1.3045 32.5614 0.775488 31.9964C0.258496 31.4433 0 30.6798 0 29.706V3.70006C0 2.73822 0.258496 1.98077 0.775488 1.4277C1.3045 0.86262 1.95976 0.580078 2.74126 0.580078C3.13802 0.580078 3.52276 0.646205 3.89547 0.778459C4.26819 0.910712 4.67697 1.10308 5.12183 1.35557L26.5469 13.7814C27.3525 14.2383 27.9416 14.6891 28.3143 15.134C28.687 15.5668 28.8734 16.0898 28.8734 16.703C28.8734 17.3282 28.687 17.8572 28.3143 18.2901C27.9416 18.7229 27.3525 19.1738 26.5469 19.6427L5.12183 32.0505C4.67697 32.315 4.26819 32.5133 3.89547 32.6456C3.52276 32.7779 3.13802 32.844 2.74126 32.844Z" fill="#F5F8FA"/>
</svg>
