<svg width="21" height="21" viewBox="0 0 21 21" fill="none" xmlns="http://www.w3.org/2000/svg">
<path d="M10.333 0C16.0398 0 20.666 4.62623 20.666 10.333C20.666 16.0398 16.0398 20.666 10.333 20.666C4.62623 20.666 0 16.0398 0 10.333C6.39091e-05 4.62627 4.62627 6.39111e-05 10.333 0ZM7.84277 5.7168C7.61277 5.7168 7.41937 5.79951 7.26367 5.96582C7.11151 6.1286 7.03516 6.35168 7.03516 6.63477V14.2891C7.03522 14.5755 7.11158 14.8002 7.26367 14.9629C7.41937 15.1292 7.61276 15.2119 7.84277 15.2119C7.95922 15.2119 8.07223 15.1931 8.18164 15.1543C8.29134 15.1154 8.41204 15.0564 8.54297 14.9785L14.8486 11.3271C15.0857 11.1891 15.2594 11.0561 15.3691 10.9287C15.4787 10.8014 15.5332 10.6458 15.5332 10.4619C15.5332 10.2815 15.4788 10.1274 15.3691 10C15.2594 9.86907 15.0857 9.73603 14.8486 9.60156L8.54297 5.94434C8.4121 5.87007 8.29129 5.81332 8.18164 5.77441C8.07223 5.73565 7.95922 5.71685 7.84277 5.7168Z" fill="#F5F8FA"/>
</svg>
